<svg width="156" height="32" viewBox="0 0 156 32" fill="none" xmlns="http://www.w3.org/2000/svg">
<g clip-path="url(#clip0_24_2052)">
<path d="M-0.000465942 19.8394V8.00201C-0.00349188 7.90192 0.0138574 7.80226 0.050489 7.70914C0.0871206 7.61602 0.142275 7.53141 0.212578 7.46047C0.281295 7.39071 0.363409 7.33573 0.453934 7.2989C0.544458 7.26208 0.641498 7.24417 0.739129 7.24627H3.44825C3.5472 7.2433 3.64569 7.26078 3.73765 7.29762C3.8296 7.33446 3.91306 7.3899 3.98285 7.46047C4.05114 7.53248 4.10444 7.61748 4.13964 7.71047C4.17484 7.80346 4.19121 7.90257 4.18783 8.00201V12.3587H9.48552V8.00201C9.48216 7.90185 9.4993 7.80206 9.53589 7.70884C9.57247 7.61562 9.6277 7.53097 9.69817 7.4601C9.76865 7.38924 9.85287 7.33369 9.94559 7.29691C10.0383 7.26012 10.1375 7.24289 10.2372 7.24627H12.9342C13.0326 7.24288 13.1306 7.2602 13.222 7.29708C13.3133 7.33396 13.396 7.38961 13.4648 7.46047C13.5336 7.53229 13.5875 7.61715 13.6234 7.71013C13.6593 7.8031 13.6764 7.90231 13.6738 8.00201V19.8394C13.6778 19.9379 13.6614 20.0362 13.6256 20.128C13.5898 20.2198 13.5354 20.3032 13.4658 20.3727C13.3963 20.4423 13.3131 20.4965 13.2216 20.532C13.1301 20.5675 13.0322 20.5835 12.9342 20.5789H10.2372C10.1379 20.5825 10.0389 20.5657 9.94635 20.5296C9.85375 20.4935 9.76943 20.4387 9.69854 20.3688C9.62916 20.2997 9.5745 20.2171 9.53787 20.1261C9.50125 20.0351 9.48344 19.9375 9.48552 19.8394V15.3008H4.18783V19.8394C4.19119 19.9383 4.17399 20.0368 4.13731 20.1287C4.10063 20.2205 4.04528 20.3037 3.97481 20.3728C3.90514 20.4407 3.82268 20.494 3.73225 20.5294C3.64182 20.5648 3.54526 20.5816 3.44825 20.5789H0.739129C0.640789 20.5827 0.542706 20.5664 0.450818 20.531C0.35893 20.4955 0.275142 20.4417 0.204531 20.3728C0.136097 20.3026 0.082619 20.219 0.0473733 20.1273C0.0121276 20.0356 -0.00414956 19.9376 -0.000465942 19.8394Z" fill="black"/>
<path d="M19.2249 21.8439L20.8086 22.054C21.9475 22.054 22.742 21.2148 23.1922 19.5362C21.9312 19.5767 20.7028 19.1298 19.7595 18.2874C18.8404 17.4549 18.0499 15.973 17.388 13.8419L15.5793 7.97774C15.5539 7.90507 15.5416 7.82843 15.5431 7.75142C15.5586 7.63482 15.6124 7.52674 15.6958 7.44427C15.7521 7.37932 15.8221 7.32784 15.9007 7.29358C15.9792 7.25932 16.0644 7.24314 16.15 7.24624H18.6783C18.9219 7.25031 19.1575 7.33402 19.3495 7.4847C19.545 7.63105 19.6864 7.83863 19.7515 8.07473L21.3352 13.2316C21.5773 14.1741 21.9858 15.0652 22.541 15.8626C22.7116 16.0862 22.9305 16.2678 23.1812 16.3939C23.4319 16.5199 23.7078 16.587 23.988 16.59L26.3997 8.07473C26.4626 7.8428 26.5961 7.63649 26.7816 7.4847C26.958 7.33122 27.1834 7.24658 27.4166 7.24624H29.969C30.0539 7.23957 30.139 7.25416 30.2169 7.28872C30.2948 7.32328 30.3629 7.37673 30.4152 7.44427C30.4973 7.53205 30.5494 7.64392 30.5639 7.76356C30.5654 7.83572 30.5573 7.90774 30.5398 7.97774L27.3684 19.3382C26.803 21.3508 26.1036 22.7869 25.2702 23.6464C24.852 24.0731 24.3504 24.408 23.7969 24.6299C23.2434 24.8518 22.6502 24.9559 22.0546 24.9356C21.1238 24.9586 20.1926 24.91 19.2691 24.7901C18.9021 24.7621 18.5488 24.6381 18.2442 24.4304C18.179 24.3661 18.1273 24.2894 18.0921 24.2047C18.0568 24.12 18.0389 24.0291 18.0392 23.9373V22.5996C18.0358 22.5002 18.0522 22.4011 18.0874 22.3081C18.1226 22.2151 18.1759 22.1301 18.2442 22.0581C18.3138 21.9873 18.3973 21.9317 18.4892 21.8949C18.5812 21.858 18.6798 21.8407 18.7788 21.8439H19.2249Z" fill="black"/>
<path d="M32.3049 23.9454V8.00201C32.3019 7.90192 32.3193 7.80226 32.3559 7.70914C32.3925 7.61602 32.4477 7.53141 32.518 7.46047C32.5864 7.39032 32.6685 7.33509 32.7591 7.29824C32.8497 7.26139 32.9468 7.24369 33.0445 7.24627H35.3798C35.4783 7.24454 35.576 7.26303 35.6671 7.30061C35.7582 7.33819 35.8407 7.39407 35.9095 7.46481C35.9784 7.53556 36.0322 7.61971 36.0676 7.71208C36.103 7.80445 36.1193 7.9031 36.1154 8.00201V8.36575C37.4098 7.45488 38.9572 6.97823 40.5368 7.00379C41.3266 6.98542 42.1112 7.13587 42.8387 7.4452C43.5663 7.75454 44.2203 8.21571 44.7573 8.79818C45.8881 9.99445 46.4535 11.7053 46.4535 13.9308C46.4535 16.1563 45.868 17.8617 44.697 19.0472C43.526 20.23 41.949 20.8228 39.9661 20.8255C38.776 20.795 37.5972 20.5852 36.4691 20.2031V23.9454C36.4727 24.0452 36.456 24.1447 36.42 24.2378C36.3841 24.3309 36.3297 24.4157 36.2601 24.487C36.1914 24.5568 36.1093 24.6117 36.0187 24.6485C35.9282 24.6854 35.8312 24.7033 35.7336 24.7012H33.0244C32.9267 24.7038 32.8296 24.6861 32.739 24.6492C32.6484 24.6124 32.5663 24.5571 32.4979 24.487C32.4312 24.4144 32.3797 24.329 32.3466 24.236C32.3134 24.1429 32.2993 24.0441 32.3049 23.9454ZM36.4812 17.3943C37.328 17.6905 38.2139 17.8581 39.1099 17.8914C40.2166 17.8914 41.0004 17.5748 41.4613 16.9416C41.9222 16.3085 42.154 15.2995 42.1567 13.9146C42.1567 12.5284 41.9396 11.5181 41.4975 10.8916C41.2754 10.5788 40.9775 10.3282 40.6322 10.1634C40.2868 9.99865 39.9054 9.92518 39.5239 9.94998C38.6517 9.94998 37.6348 10.3137 36.4812 11.0452V17.3943Z" fill="black"/>
<path d="M76.4062 19.8394V8.00201C76.4027 7.9022 76.4194 7.80271 76.4553 7.70961C76.4913 7.6165 76.5457 7.53175 76.6153 7.46047C76.684 7.39071 76.7661 7.33573 76.8566 7.2989C76.9471 7.26208 77.0442 7.24417 77.1418 7.24627H79.67C79.7697 7.24289 79.8689 7.26012 79.9616 7.29691C80.0544 7.33369 80.1386 7.38924 80.209 7.4601C80.2795 7.53097 80.3348 7.61562 80.3713 7.70884C80.4079 7.80206 80.425 7.90185 80.4217 8.00201V15.996L84.6783 8.12325C84.8173 7.86464 85.0227 7.6483 85.2732 7.49683C85.5031 7.34134 85.772 7.25447 86.049 7.24627H89.4334C89.533 7.24289 89.6322 7.26012 89.7249 7.29691C89.8176 7.33369 89.9019 7.38924 89.9724 7.4601C90.0428 7.53097 90.0981 7.61562 90.1347 7.70884C90.1713 7.80206 90.1884 7.90185 90.185 8.00201V19.8394C90.1884 19.9383 90.1712 20.0368 90.1345 20.1287C90.0978 20.2205 90.0424 20.3037 89.972 20.3728C89.9006 20.4418 89.8161 20.4957 89.7236 20.5311C89.631 20.5665 89.5323 20.5828 89.4334 20.5789H86.9051C86.807 20.5828 86.7092 20.5662 86.6178 20.53C86.5265 20.4938 86.4436 20.4389 86.3746 20.3688C86.307 20.2987 86.2541 20.2158 86.2189 20.1249C86.1837 20.034 86.1669 19.9369 86.1696 19.8394V11.8575L81.9009 19.706C81.7574 19.9567 81.5544 20.1678 81.31 20.3203C81.0818 20.4803 80.8123 20.5701 80.5342 20.5789H77.1338C77.036 20.5835 76.9383 20.5676 76.8469 20.532C76.7556 20.4965 76.6727 20.4422 76.6035 20.3726C76.5342 20.3029 76.4802 20.2196 76.4448 20.1277C76.4095 20.0359 76.3936 19.9377 76.3982 19.8394H76.4062Z" fill="black"/>
<path d="M93.1552 19.8394V8.00202C93.1522 7.90192 93.1695 7.80227 93.2061 7.70915C93.2428 7.61603 93.2979 7.53141 93.3682 7.46048C93.437 7.39072 93.5191 7.33574 93.6096 7.29891C93.7001 7.26209 93.7971 7.24418 93.8948 7.24627H96.6039C96.7029 7.24257 96.8017 7.25971 96.8937 7.2966C96.9858 7.33348 97.0692 7.38931 97.1385 7.46048C97.2068 7.53249 97.2601 7.61749 97.2953 7.71048C97.3305 7.80347 97.3469 7.90258 97.3435 8.00202V12.3587H102.641V8.00202C102.638 7.90186 102.655 7.80207 102.692 7.70885C102.728 7.61563 102.783 7.53097 102.854 7.46011C102.924 7.38925 103.009 7.3337 103.101 7.29692C103.194 7.26013 103.293 7.2429 103.393 7.24627H106.09C106.189 7.24331 106.287 7.26079 106.379 7.29763C106.471 7.33447 106.555 7.38991 106.624 7.46048C106.693 7.53249 106.746 7.61749 106.781 7.71048C106.816 7.80347 106.833 7.90258 106.829 8.00202V19.8394C106.833 19.9376 106.817 20.0356 106.782 20.1273C106.746 20.219 106.693 20.3026 106.624 20.3728C106.554 20.4414 106.47 20.4949 106.378 20.5303C106.286 20.5657 106.188 20.5822 106.09 20.5789H103.393C103.294 20.5825 103.195 20.5657 103.102 20.5296C103.009 20.4935 102.925 20.4387 102.854 20.3688C102.785 20.2997 102.73 20.2171 102.694 20.1261C102.657 20.0351 102.639 19.9375 102.641 19.8394V15.3008H97.3355V19.8394C97.3388 19.9383 97.3216 20.0368 97.2849 20.1287C97.2482 20.2205 97.1929 20.3037 97.1224 20.3728C97.053 20.4411 96.9706 20.4946 96.8801 20.53C96.7896 20.5655 96.693 20.5821 96.5959 20.5789H93.8867C93.789 20.5826 93.6916 20.5663 93.6003 20.5308C93.5091 20.4954 93.426 20.4416 93.3562 20.3728C93.2879 20.3026 93.2347 20.219 93.2001 20.1272C93.1656 20.0354 93.1503 19.9374 93.1552 19.8394Z" fill="black"/>
<path d="M110.648 19.706C110.133 19.3608 109.715 18.8886 109.434 18.3346C109.152 17.7806 109.017 17.1632 109.04 16.5416C109.015 15.923 109.15 15.3084 109.432 14.758C109.713 14.2076 110.133 13.7401 110.648 13.4014C111.885 12.6277 113.325 12.2474 114.78 12.3102H118.799C118.799 11.3591 118.601 10.6977 118.204 10.3258C117.803 9.95403 117.119 9.76408 116.13 9.76408C115.142 9.76408 114.45 10.0106 114.048 10.5037C113.877 10.7324 113.656 10.9179 113.401 11.0455C113.147 11.1732 112.866 11.2395 112.581 11.2392H110.776C110.677 11.2422 110.578 11.2248 110.485 11.188C110.393 11.1512 110.308 11.0957 110.238 11.025C110.169 10.9559 110.114 10.8733 110.077 10.7823C110.041 10.6913 110.023 10.5937 110.025 10.4956C110.025 8.16771 112.224 7.0038 116.621 7.0038C118.542 7.0038 120.083 7.43622 121.243 8.30108C122.404 9.16595 122.984 10.5023 122.984 12.3102V19.8394C122.988 19.9377 122.972 20.0359 122.937 20.1278C122.902 20.2196 122.848 20.303 122.778 20.3726C122.709 20.4422 122.626 20.4965 122.535 20.532C122.444 20.5676 122.346 20.5835 122.248 20.5789H119.913C119.814 20.5834 119.715 20.567 119.623 20.5308C119.531 20.4946 119.448 20.4394 119.378 20.3688C119.311 20.2988 119.258 20.2158 119.222 20.1249C119.187 20.034 119.171 19.9369 119.173 19.8394V19.4595C117.884 20.3827 116.334 20.8632 114.752 20.8295C113.302 20.8858 111.869 20.4937 110.648 19.706ZM113.735 15.4827C113.578 15.6147 113.453 15.7795 113.367 15.9656C113.28 16.1517 113.236 16.3545 113.236 16.5597C113.236 16.765 113.28 16.9678 113.367 17.1539C113.453 17.3399 113.578 17.5048 113.735 17.6368C114.15 17.9444 114.659 18.0947 115.174 18.0611C116.451 18.0513 117.699 17.671 118.767 16.9659V15.0543H115.053C114.577 15.0355 114.11 15.1873 113.735 15.4827Z" fill="black"/>
<path d="M125.95 19.8394V8.00202C125.946 7.90221 125.963 7.80272 125.999 7.70962C126.035 7.61651 126.089 7.53175 126.159 7.46048C126.228 7.39072 126.31 7.33574 126.4 7.29891C126.491 7.26209 126.588 7.24418 126.686 7.24627H129.399C129.497 7.24289 129.595 7.26021 129.687 7.29709C129.778 7.33397 129.861 7.38962 129.929 7.46048C129.998 7.53249 130.051 7.61749 130.086 7.71048C130.121 7.80347 130.138 7.90258 130.134 8.00202V12.3587H135.436V8.00202C135.432 7.90206 135.449 7.80236 135.485 7.70915C135.521 7.61594 135.576 7.53124 135.646 7.46031C135.716 7.38938 135.8 7.33377 135.893 7.29694C135.985 7.26012 136.084 7.24286 136.184 7.24627H138.881C138.98 7.24257 139.078 7.25971 139.17 7.2966C139.263 7.33348 139.346 7.38931 139.415 7.46048C139.484 7.53249 139.537 7.61749 139.572 7.71048C139.607 7.80347 139.624 7.90258 139.62 8.00202V19.8394C139.625 19.9381 139.609 20.0367 139.573 20.1288C139.538 20.2209 139.483 20.3044 139.414 20.3741C139.344 20.4438 139.261 20.498 139.169 20.5333C139.077 20.5686 138.979 20.5841 138.881 20.5789H136.184C136.084 20.5825 135.985 20.5657 135.893 20.5296C135.8 20.4935 135.716 20.4388 135.645 20.3688C135.576 20.2995 135.522 20.2168 135.486 20.1257C135.45 20.0347 135.433 19.9373 135.436 19.8394V15.3008H130.134V19.8394C130.138 19.9384 130.122 20.0372 130.085 20.1291C130.048 20.2211 129.992 20.3042 129.921 20.3728C129.852 20.4406 129.771 20.4938 129.681 20.5292C129.591 20.5646 129.495 20.5815 129.399 20.5789H126.686C126.588 20.5835 126.49 20.5676 126.399 20.532C126.307 20.4965 126.224 20.4422 126.155 20.3726C126.086 20.3029 126.032 20.2196 125.997 20.1277C125.961 20.0359 125.945 19.9377 125.95 19.8394Z" fill="black"/>
<path d="M149.026 20.8255C146.762 20.8255 145.001 20.2408 143.744 19.0715C142.488 17.9022 141.859 16.1846 141.859 13.9187C141.859 11.6528 142.484 9.93382 143.732 8.76181C144.981 7.5898 146.723 7.0038 148.958 7.0038C151.187 7.0038 152.902 7.36078 154.103 8.07476C154.664 8.38283 155.129 8.84204 155.446 9.40095C155.763 9.95987 155.918 10.5964 155.895 11.2392C155.899 11.3378 155.883 11.4362 155.847 11.5281C155.811 11.6199 155.756 11.7032 155.686 11.7727C155.615 11.8413 155.53 11.8949 155.438 11.9303C155.345 11.9657 155.247 11.9822 155.148 11.9788H153.343C153.054 11.9668 152.774 11.8787 152.53 11.7233C152.286 11.568 152.087 11.3509 151.952 11.0937C151.478 10.3285 150.638 9.9473 149.432 9.94999C148.226 9.94999 147.382 10.2571 146.904 10.8795C146.425 11.5019 146.18 12.4961 146.18 13.9146C146.18 15.3332 146.43 16.3395 146.928 16.9538C147.426 17.5681 148.287 17.8914 149.516 17.8914C150.746 17.8914 151.599 17.5115 152.073 16.7477C152.206 16.4928 152.402 16.2772 152.644 16.122C152.885 15.9668 153.162 15.8774 153.448 15.8626H155.252C155.352 15.8596 155.451 15.877 155.544 15.9138C155.636 15.9506 155.72 16.0061 155.791 16.0768C155.86 16.1459 155.915 16.2285 155.952 16.3195C155.988 16.4105 156.006 16.5081 156.004 16.6062C156.027 17.2495 155.871 17.8865 155.553 18.4456C155.236 19.0046 154.77 19.4635 154.207 19.7706C153.009 20.4712 151.282 20.8228 149.026 20.8255Z" fill="black"/>
<path d="M56.4776 16.4971V4.19097C56.4776 4.19097 52.7194 5.46807 52.4903 5.56911C51.629 5.9474 50.8953 6.56869 50.3781 7.35773C49.8609 8.14677 49.5823 9.06969 49.5762 10.0147V19.9647C49.5835 20.9088 49.862 21.8308 50.3783 22.6195C50.8946 23.4082 51.6267 24.0301 52.4863 24.4102C52.7154 24.5113 56.4776 25.7883 56.4776 25.7883V20.979H54.6528L56.4776 16.4971Z" fill="#60AAFB"/>
<path d="M64.8419 8.40616V0C64.8419 0 61.0796 1.28112 60.8546 1.37811C59.9939 1.75725 59.2607 2.37877 58.7436 3.16762C58.2265 3.95648 57.9476 4.87893 57.9404 5.82368V16.5537L59.7371 20.9993H57.9404C57.9404 26.7825 57.9404 32.0162 57.9404 32.0162C57.9404 32.0162 61.7026 30.735 61.9317 30.634C62.7921 30.2544 63.525 29.6328 64.042 28.8441C64.5591 28.0553 64.8382 27.1331 64.8459 26.1884V12.9528H63.009L64.8419 8.40616Z" fill="#355DFB"/>
<path d="M73.1466 10.0187C73.1404 9.07369 72.8618 8.15079 72.3446 7.36175C71.8274 6.57272 71.0937 5.9514 70.2324 5.57311C70.0033 5.47207 66.2451 4.19499 66.2451 4.19499V8.44254L68.078 12.9568H66.2451V25.8005C66.2451 25.8005 70.0073 24.5234 70.2364 24.4223C71.0961 24.0422 71.8281 23.4203 72.3444 22.6316C72.8607 21.8429 73.1392 20.9209 73.1466 19.9768V10.0187Z" fill="#0000DE"/>
</g>
<defs>
<clipPath id="clip0_24_2052">
<rect width="156" height="32" fill="white"/>
</clipPath>
</defs>
</svg>
